<svg width="137" height="22" viewBox="0 0 137 22" fill="none" xmlns="http://www.w3.org/2000/svg">
<path d="M0.074508 10.7015H3.67451C3.89451 11.3815 4.34451 11.9415 5.02451 12.3815C5.72451 12.8015 6.63451 13.0115 7.75451 13.0115C8.51451 13.0115 9.10451 12.9415 9.52451 12.8015C9.94451 12.6615 10.2345 12.4615 10.3945 12.2015C10.5545 11.9215 10.6345 11.6115 10.6345 11.2715C10.6345 10.8515 10.5045 10.5315 10.2445 10.3115C9.98451 10.0715 9.58451 9.88146 9.04451 9.74146C8.50451 9.60146 7.81451 9.47146 6.97451 9.35146C6.13451 9.21146 5.32451 9.04146 4.54451 8.84146C3.76451 8.64146 3.07451 8.38146 2.47451 8.06146C1.87451 7.72146 1.39451 7.30146 1.03451 6.80146C0.694508 6.28146 0.524508 5.65146 0.524508 4.91146C0.524508 4.19146 0.694508 3.55146 1.03451 2.99146C1.39451 2.43146 1.88451 1.96146 2.50451 1.58146C3.14451 1.20146 3.88451 0.911458 4.72451 0.711458C5.58451 0.511458 6.50451 0.411458 7.48451 0.411458C8.96451 0.411458 10.1945 0.631458 11.1745 1.07146C12.1545 1.49146 12.8845 2.09146 13.3645 2.87146C13.8645 3.63146 14.1145 4.51146 14.1145 5.51146H10.6645C10.5045 4.77146 10.1845 4.24146 9.70451 3.92146C9.22451 3.58146 8.48451 3.41146 7.48451 3.41146C6.50451 3.41146 5.76451 3.56146 5.26451 3.86146C4.76451 4.16146 4.51451 4.57146 4.51451 5.09146C4.51451 5.51146 4.66451 5.84146 4.96451 6.08146C5.28451 6.30146 5.74451 6.48146 6.34451 6.62146C6.96451 6.76146 7.73451 6.91146 8.65451 7.07146C9.43451 7.23146 10.1745 7.41146 10.8745 7.61146C11.5945 7.81146 12.2345 8.07146 12.7945 8.39146C13.3545 8.69146 13.7945 9.10146 14.1145 9.62146C14.4545 10.1215 14.6245 10.7615 14.6245 11.5415C14.6245 12.5015 14.3445 13.3115 13.7845 13.9715C13.2445 14.6315 12.4645 15.1415 11.4445 15.5015C10.4245 15.8415 9.20451 16.0115 7.78451 16.0115C6.52451 16.0115 5.43451 15.8815 4.51451 15.6215C3.61451 15.3415 2.86451 14.9915 2.26451 14.5715C1.66451 14.1315 1.19451 13.6715 0.854508 13.1915C0.534508 12.6915 0.314508 12.2215 0.194508 11.7815C0.074508 11.3415 0.034508 10.9815 0.074508 10.7015ZM15.7015 0.741458H19.8415L26.2915 15.0515L22.9315 15.6515L15.7015 0.741458ZM33.9415 0.741458L23.6215 21.6515H19.5715L23.9815 13.4315L29.7715 0.741458H33.9415ZM36.2116 0.741458H40.1116V15.6515H36.2116V0.741458ZM47.0416 0.411458C47.9616 0.411458 48.8116 0.531458 49.5916 0.771458C50.3716 1.01146 51.0516 1.38146 51.6316 1.88146C52.2116 2.38146 52.6616 3.02146 52.9816 3.80146C53.3016 4.56146 53.4616 5.47146 53.4616 6.53146V15.6515H49.5616V7.22146C49.5616 5.96146 49.2516 5.04146 48.6316 4.46146C48.0316 3.86146 47.0416 3.56146 45.6616 3.56146C44.6216 3.56146 43.6816 3.76146 42.8416 4.16146C42.0016 4.56146 41.3216 5.07146 40.8016 5.69146C40.2816 6.29146 39.9816 6.92146 39.9016 7.58146L39.8716 6.05146C39.9716 5.35146 40.2016 4.67146 40.5616 4.01146C40.9216 3.35146 41.4016 2.75146 42.0016 2.21146C42.6216 1.65146 43.3516 1.21146 44.1916 0.891458C45.0316 0.571458 45.9816 0.411458 47.0416 0.411458ZM74.7124 9.77146C74.6124 11.0715 74.1924 12.1915 73.4524 13.1315C72.7324 14.0715 71.7324 14.7915 70.4524 15.2915C69.1724 15.7715 67.6524 16.0115 65.8924 16.0115C64.0524 16.0115 62.4024 15.7215 60.9424 15.1415C59.5024 14.5415 58.3624 13.6715 57.5224 12.5315C56.7024 11.3715 56.2924 9.94146 56.2924 8.24146C56.2924 6.54146 56.7024 5.11146 57.5224 3.95146C58.3624 2.79146 59.5024 1.91146 60.9424 1.31146C62.4024 0.711458 64.0524 0.411458 65.8924 0.411458C67.6524 0.411458 69.1624 0.661458 70.4224 1.16146C71.6824 1.64146 72.6724 2.34146 73.3924 3.26146C74.1324 4.18146 74.5624 5.29146 74.6824 6.59146H71.1124C70.7724 5.59146 70.1424 4.81146 69.2224 4.25146C68.3024 3.69146 67.1924 3.41146 65.8924 3.41146C64.8524 3.41146 63.9024 3.59146 63.0424 3.95146C62.2024 4.31146 61.5224 4.85146 61.0024 5.57146C60.5024 6.27146 60.2524 7.16146 60.2524 8.24146C60.2524 9.30146 60.5024 10.1915 61.0024 10.9115C61.5024 11.6115 62.1824 12.1415 63.0424 12.5015C63.9024 12.8415 64.8524 13.0115 65.8924 13.0115C67.2924 13.0115 68.4324 12.7315 69.3124 12.1715C70.2124 11.6115 70.8224 10.8115 71.1424 9.77146H74.7124ZM86.3688 16.0115C84.4888 16.0115 82.8288 15.7115 81.3888 15.1115C79.9688 14.5115 78.8588 13.6415 78.0588 12.5015C77.2588 11.3415 76.8588 9.92146 76.8588 8.24146C76.8588 6.56146 77.2588 5.14146 78.0588 3.98146C78.8588 2.80146 79.9688 1.91146 81.3888 1.31146C82.8288 0.711458 84.4888 0.411458 86.3688 0.411458C88.2488 0.411458 89.8888 0.711458 91.2888 1.31146C92.7088 1.91146 93.8188 2.80146 94.6188 3.98146C95.4188 5.14146 95.8188 6.56146 95.8188 8.24146C95.8188 9.92146 95.4188 11.3415 94.6188 12.5015C93.8188 13.6415 92.7088 14.5115 91.2888 15.1115C89.8888 15.7115 88.2488 16.0115 86.3688 16.0115ZM86.3688 13.0115C87.4088 13.0115 88.3388 12.8315 89.1588 12.4715C89.9988 12.0915 90.6588 11.5515 91.1388 10.8515C91.6188 10.1315 91.8588 9.26146 91.8588 8.24146C91.8588 7.22146 91.6188 6.35146 91.1388 5.63146C90.6588 4.89146 90.0088 4.33146 89.1888 3.95146C88.3688 3.57146 87.4288 3.38146 86.3688 3.38146C85.3288 3.38146 84.3888 3.57146 83.5488 3.95146C82.7088 4.33146 82.0388 4.88146 81.5388 5.60146C81.0588 6.32146 80.8188 7.20146 80.8188 8.24146C80.8188 9.26146 81.0588 10.1315 81.5388 10.8515C82.0188 11.5515 82.6788 12.0915 83.5188 12.4715C84.3588 12.8315 85.3088 13.0115 86.3688 13.0115ZM98.7019 0.741458H102.602V15.6515H98.7019V0.741458ZM108.332 3.95146C107.212 3.95146 106.242 4.17146 105.422 4.61146C104.602 5.03146 103.942 5.55146 103.442 6.17146C102.942 6.79146 102.592 7.39146 102.392 7.97146L102.362 6.32146C102.382 6.08146 102.462 5.73146 102.602 5.27146C102.742 4.79146 102.952 4.28146 103.232 3.74146C103.512 3.18146 103.882 2.65146 104.342 2.15146C104.802 1.63146 105.362 1.21146 106.022 0.891458C106.682 0.571458 107.452 0.411458 108.332 0.411458V3.95146ZM118.003 15.9815C116.523 15.9815 115.173 15.6615 113.953 15.0215C112.753 14.3615 111.793 13.4515 111.073 12.2915C110.373 11.1115 110.023 9.75146 110.023 8.21146C110.023 6.63146 110.383 5.26146 111.103 4.10146C111.823 2.94146 112.793 2.04146 114.013 1.40146C115.253 0.741458 116.653 0.411458 118.213 0.411458C119.933 0.411458 121.313 0.761458 122.353 1.46146C123.413 2.14146 124.183 3.07146 124.663 4.25146C125.143 5.43146 125.383 6.75146 125.383 8.21146C125.383 9.09146 125.243 9.99146 124.963 10.9115C124.683 11.8115 124.253 12.6515 123.673 13.4315C123.093 14.1915 122.333 14.8115 121.393 15.2915C120.453 15.7515 119.323 15.9815 118.003 15.9815ZM119.263 12.9815C120.443 12.9815 121.463 12.7815 122.323 12.3815C123.183 11.9815 123.843 11.4215 124.303 10.7015C124.763 9.98146 124.993 9.15146 124.993 8.21146C124.993 7.19146 124.753 6.33146 124.273 5.63146C123.813 4.91146 123.153 4.37146 122.293 4.01146C121.453 3.63146 120.443 3.44146 119.263 3.44146C117.603 3.44146 116.313 3.88146 115.393 4.76146C114.473 5.62146 114.013 6.77146 114.013 8.21146C114.013 9.17146 114.233 10.0115 114.673 10.7315C115.113 11.4315 115.723 11.9815 116.503 12.3815C117.303 12.7815 118.223 12.9815 119.263 12.9815ZM124.993 0.741458H128.893V15.6515H125.263C125.263 15.6515 125.233 15.4615 125.173 15.0815C125.133 14.6815 125.093 14.1815 125.053 13.5815C125.013 12.9815 124.993 12.3915 124.993 11.8115V0.741458ZM136.953 12.2315V15.6515H132.423V12.2315H136.953Z" fill="#C1FA4F"/>
</svg>
