<svg width="56" height="10" viewBox="0 0 56 10" fill="none" xmlns="http://www.w3.org/2000/svg">
<path d="M0.354508 4.67146H1.79451C1.88251 4.94346 2.06251 5.16746 2.33451 5.34346C2.61451 5.51146 2.97851 5.59546 3.42651 5.59546C3.73051 5.59546 3.96651 5.56746 4.13451 5.51146C4.30251 5.45546 4.41851 5.37546 4.48251 5.27146C4.54651 5.15946 4.57851 5.03546 4.57851 4.89946C4.57851 4.73146 4.52651 4.60346 4.42251 4.51546C4.31851 4.41946 4.15851 4.34346 3.94251 4.28746C3.72651 4.23146 3.45051 4.17946 3.11451 4.13146C2.77851 4.07546 2.45451 4.00746 2.14251 3.92746C1.83051 3.84746 1.55451 3.74346 1.31451 3.61546C1.07451 3.47946 0.882508 3.31146 0.738508 3.11146C0.602508 2.90346 0.534508 2.65146 0.534508 2.35546C0.534508 2.06746 0.602508 1.81146 0.738508 1.58746C0.882508 1.36346 1.07851 1.17546 1.32651 1.02346C1.58251 0.871458 1.87851 0.755458 2.21451 0.675458C2.55851 0.595459 2.92651 0.555459 3.31851 0.555459C3.91051 0.555459 4.40251 0.643458 4.79451 0.819458C5.18651 0.987458 5.47851 1.22746 5.67051 1.53946C5.87051 1.84346 5.97051 2.19546 5.97051 2.59546H4.59051C4.52651 2.29946 4.39851 2.08746 4.20651 1.95946C4.01451 1.82346 3.71851 1.75546 3.31851 1.75546C2.92651 1.75546 2.63051 1.81546 2.43051 1.93546C2.23051 2.05546 2.13051 2.21946 2.13051 2.42746C2.13051 2.59546 2.19051 2.72746 2.31051 2.82346C2.43851 2.91146 2.62251 2.98346 2.86251 3.03946C3.11051 3.09546 3.41851 3.15546 3.78651 3.21946C4.09851 3.28346 4.39451 3.35546 4.67451 3.43546C4.96251 3.51546 5.21851 3.61946 5.44251 3.74746C5.66651 3.86746 5.84251 4.03146 5.97051 4.23946C6.10651 4.43946 6.17451 4.69546 6.17451 5.00746C6.17451 5.39146 6.06251 5.71546 5.83851 5.97946C5.62251 6.24346 5.31051 6.44746 4.90251 6.59146C4.49451 6.72746 4.00651 6.79546 3.43851 6.79546C2.93451 6.79546 2.49851 6.74346 2.13051 6.63946C1.77051 6.52746 1.47051 6.38746 1.23051 6.21946C0.990508 6.04346 0.802508 5.85946 0.666508 5.66746C0.538508 5.46746 0.450508 5.27946 0.402508 5.10346C0.354508 4.92746 0.338508 4.78346 0.354508 4.67146ZM6.60529 0.687459H8.26129L10.8413 6.41146L9.49729 6.65146L6.60529 0.687459ZM13.9013 0.687459L9.77329 9.05146H8.15329L9.91729 5.76346L12.2333 0.687459H13.9013ZM14.8094 0.687459H16.3694V6.65146H14.8094V0.687459ZM19.1414 0.555459C19.5094 0.555459 19.8494 0.603459 20.1614 0.699458C20.4734 0.795458 20.7454 0.943458 20.9774 1.14346C21.2094 1.34346 21.3894 1.59946 21.5174 1.91146C21.6454 2.21546 21.7094 2.57946 21.7094 3.00346V6.65146H20.1494V3.27946C20.1494 2.77546 20.0254 2.40746 19.7774 2.17546C19.5374 1.93546 19.1414 1.81546 18.5894 1.81546C18.1734 1.81546 17.7974 1.89546 17.4614 2.05546C17.1254 2.21546 16.8534 2.41946 16.6454 2.66746C16.4374 2.90746 16.3174 3.15946 16.2854 3.42346L16.2734 2.81146C16.3134 2.53146 16.4054 2.25946 16.5494 1.99546C16.6934 1.73146 16.8854 1.49146 17.1254 1.27546C17.3734 1.05146 17.6654 0.875459 18.0014 0.747459C18.3374 0.619459 18.7174 0.555459 19.1414 0.555459ZM30.2097 4.29946C30.1697 4.81946 30.0017 5.26746 29.7057 5.64346C29.4177 6.01946 29.0177 6.30746 28.5057 6.50746C27.9937 6.69946 27.3857 6.79546 26.6817 6.79546C25.9457 6.79546 25.2857 6.67946 24.7017 6.44746C24.1257 6.20746 23.6697 5.85946 23.3337 5.40346C23.0057 4.93946 22.8417 4.36746 22.8417 3.68746C22.8417 3.00746 23.0057 2.43546 23.3337 1.97146C23.6697 1.50746 24.1257 1.15546 24.7017 0.915459C25.2857 0.675459 25.9457 0.555459 26.6817 0.555459C27.3857 0.555459 27.9897 0.655459 28.4937 0.855459C28.9977 1.04746 29.3937 1.32746 29.6817 1.69546C29.9777 2.06346 30.1497 2.50746 30.1977 3.02746H28.7697C28.6337 2.62746 28.3817 2.31546 28.0137 2.09146C27.6457 1.86746 27.2017 1.75546 26.6817 1.75546C26.2657 1.75546 25.8857 1.82746 25.5417 1.97146C25.2057 2.11546 24.9337 2.33146 24.7257 2.61946C24.5257 2.89946 24.4257 3.25546 24.4257 3.68746C24.4257 4.11146 24.5257 4.46746 24.7257 4.75546C24.9257 5.03546 25.1977 5.24746 25.5417 5.39146C25.8857 5.52746 26.2657 5.59546 26.6817 5.59546C27.2417 5.59546 27.6977 5.48346 28.0497 5.25946C28.4097 5.03546 28.6537 4.71546 28.7817 4.29946H30.2097ZM34.8722 6.79546C34.1202 6.79546 33.4562 6.67546 32.8802 6.43546C32.3122 6.19546 31.8682 5.84746 31.5482 5.39146C31.2282 4.92746 31.0682 4.35946 31.0682 3.68746C31.0682 3.01546 31.2282 2.44746 31.5482 1.98346C31.8682 1.51146 32.3122 1.15546 32.8802 0.915459C33.4562 0.675459 34.1202 0.555459 34.8722 0.555459C35.6242 0.555459 36.2802 0.675459 36.8402 0.915459C37.4082 1.15546 37.8522 1.51146 38.1722 1.98346C38.4922 2.44746 38.6522 3.01546 38.6522 3.68746C38.6522 4.35946 38.4922 4.92746 38.1722 5.39146C37.8522 5.84746 37.4082 6.19546 36.8402 6.43546C36.2802 6.67546 35.6242 6.79546 34.8722 6.79546ZM34.8722 5.59546C35.2882 5.59546 35.6602 5.52346 35.9882 5.37946C36.3242 5.22746 36.5882 5.01146 36.7802 4.73146C36.9722 4.44346 37.0682 4.09546 37.0682 3.68746C37.0682 3.27946 36.9722 2.93146 36.7802 2.64346C36.5882 2.34746 36.3282 2.12346 36.0002 1.97146C35.6722 1.81946 35.2962 1.74346 34.8722 1.74346C34.4562 1.74346 34.0802 1.81946 33.7442 1.97146C33.4082 2.12346 33.1402 2.34346 32.9402 2.63146C32.7482 2.91946 32.6522 3.27146 32.6522 3.68746C32.6522 4.09546 32.7482 4.44346 32.9402 4.73146C33.1322 5.01146 33.3962 5.22746 33.7322 5.37946C34.0682 5.52346 34.4482 5.59546 34.8722 5.59546ZM39.8054 0.687459H41.3654V6.65146H39.8054V0.687459ZM43.6574 1.97146C43.2094 1.97146 42.8214 2.05946 42.4934 2.23546C42.1654 2.40346 41.9014 2.61146 41.7014 2.85946C41.5014 3.10746 41.3614 3.34746 41.2814 3.57946L41.2694 2.91946C41.2774 2.82346 41.3094 2.68346 41.3654 2.49946C41.4214 2.30746 41.5054 2.10346 41.6174 1.88746C41.7294 1.66346 41.8774 1.45146 42.0614 1.25146C42.2454 1.04346 42.4694 0.875459 42.7334 0.747459C42.9974 0.619459 43.3054 0.555459 43.6574 0.555459V1.97146ZM47.5259 6.78346C46.9339 6.78346 46.3939 6.65546 45.9059 6.39946C45.4259 6.13546 45.0419 5.77146 44.7539 5.30746C44.4739 4.83546 44.3339 4.29146 44.3339 3.67546C44.3339 3.04346 44.4779 2.49546 44.7659 2.03146C45.0539 1.56746 45.4419 1.20746 45.9299 0.951458C46.4259 0.687459 46.9859 0.555459 47.6099 0.555459C48.2979 0.555459 48.8499 0.695459 49.2659 0.975459C49.6899 1.24746 49.9979 1.61946 50.1899 2.09146C50.3819 2.56346 50.4779 3.09146 50.4779 3.67546C50.4779 4.02746 50.4219 4.38746 50.3099 4.75546C50.1979 5.11546 50.0259 5.45146 49.7939 5.76346C49.5619 6.06746 49.2579 6.31546 48.8819 6.50746C48.5059 6.69146 48.0539 6.78346 47.5259 6.78346ZM48.0299 5.58346C48.5019 5.58346 48.9099 5.50346 49.2539 5.34346C49.5979 5.18346 49.8619 4.95946 50.0459 4.67146C50.2299 4.38346 50.3219 4.05146 50.3219 3.67546C50.3219 3.26746 50.2259 2.92346 50.0339 2.64346C49.8499 2.35546 49.5859 2.13946 49.2419 1.99546C48.9059 1.84346 48.5019 1.76746 48.0299 1.76746C47.3659 1.76746 46.8499 1.94346 46.4819 2.29546C46.1139 2.63946 45.9299 3.09946 45.9299 3.67546C45.9299 4.05946 46.0179 4.39546 46.1939 4.68346C46.3699 4.96346 46.6139 5.18346 46.9259 5.34346C47.2459 5.50346 47.6139 5.58346 48.0299 5.58346ZM50.3219 0.687459H51.8819V6.65146H50.4299C50.4299 6.65146 50.4179 6.57546 50.3939 6.42346C50.3779 6.26346 50.3619 6.06346 50.3459 5.82346C50.3299 5.58346 50.3219 5.34746 50.3219 5.11546V0.687459ZM55.1057 5.28346V6.65146H53.2937V5.28346H55.1057Z" fill="#18181B"/>
</svg>
